<svg id="Calque_1" data-name="Calque 1" xmlns="http://www.w3.org/2000/svg" viewBox="0 0 187.09 45.35"><defs><style>.cls-1{fill:#fff;}</style></defs><g id="Groupe_584" data-name="Groupe 584"><g id="Groupe_580" data-name="Groupe 580"><g id="Groupe_580-2" data-name="Groupe 580-2"><path id="Tracé_862" data-name="Tracé 862" class="cls-1" d="M20.89,6.72V42.19a3.55,3.55,0,0,0,3.54-3.55h0V3.17h0a3.54,3.54,0,0,0-3.54,3.55Z"/><path id="Tracé_863" data-name="Tracé 863" class="cls-1" d="M3.17,24.46h7.07V20.91H6.71a3.53,3.53,0,0,0-3.54,3.54Z"/><path id="Tracé_864" data-name="Tracé 864" class="cls-1" d="M35.08,20.91v3.55h3.55a3.55,3.55,0,0,0,3.55-3.55Z"/><path id="Tracé_865" data-name="Tracé 865" class="cls-1" d="M13.79,13.85V24.44h3.55V10.31A3.54,3.54,0,0,0,13.79,13.85Z"/><path id="Tracé_866" data-name="Tracé 866" class="cls-1" d="M28,35.08h0a3.55,3.55,0,0,0,3.55-3.55h0V20.91H28Z"/></g><g id="Groupe_581" data-name="Groupe 581"><path id="Tracé_867" data-name="Tracé 867" class="cls-1" d="M61,16.45a4.7,4.7,0,0,0-3.92,1.82A9.74,9.74,0,0,0,57,28.34a4.79,4.79,0,0,0,4,1.72,10,10,0,0,0,2.18-.23c.7-.15,1.43-.35,2.19-.59v2.55a12.89,12.89,0,0,1-4.72.81,7.44,7.44,0,0,1-6-2.42q-2.09-2.41-2.08-6.92a11.35,11.35,0,0,1,1-5A7.33,7.33,0,0,1,56.54,15,8.62,8.62,0,0,1,61,13.9a10.83,10.83,0,0,1,5,1.17l-1,2.47a15.53,15.53,0,0,0-1.89-.76A6.83,6.83,0,0,0,61,16.45Z"/><path id="Tracé_868" data-name="Tracé 868" class="cls-1" d="M77.27,32.35l-.57-1.92h-.1a5.43,5.43,0,0,1-1.95,1.71,6.06,6.06,0,0,1-2.52.46,3.83,3.83,0,0,1-4.19-3.43,4.82,4.82,0,0,1,0-.76,3.68,3.68,0,0,1,1.54-3.21A8.75,8.75,0,0,1,74.17,24l2.31-.07v-.73a2.88,2.88,0,0,0-.6-2A2.4,2.4,0,0,0,74,20.58a6.24,6.24,0,0,0-2,.31,15.08,15.08,0,0,0-1.82.74l-.92-2.09a9.69,9.69,0,0,1,2.39-.89,10.06,10.06,0,0,1,2.44-.3A5.64,5.64,0,0,1,78,19.49a4.55,4.55,0,0,1,1.3,3.6v9.27Zm-4.24-2a3.49,3.49,0,0,0,2.49-.89,3.31,3.31,0,0,0,.94-2.5V25.78l-1.72.07a5.86,5.86,0,0,0-2.93.69,2.14,2.14,0,0,0-.91,1.89,1.86,1.86,0,0,0,.53,1.42A2.27,2.27,0,0,0,73,30.36Z"/><path id="Tracé_869" data-name="Tracé 869" class="cls-1" d="M90.07,18.34a6.66,6.66,0,0,1,1.41.12l-.27,2.73A5.42,5.42,0,0,0,90,21a3.6,3.6,0,0,0-2.77,1.14,4.19,4.19,0,0,0-1.06,3v7.19H83.27V18.59H85.5L85.88,21H86a5.43,5.43,0,0,1,1.74-2A4,4,0,0,1,90.07,18.34Z"/><path id="Tracé_870" data-name="Tracé 870" class="cls-1" d="M98.48,32.6a4.59,4.59,0,0,1-3.91-1.87,10.47,10.47,0,0,1,0-10.51,4.67,4.67,0,0,1,3.94-1.88,4.59,4.59,0,0,1,4,2h.14a16.67,16.67,0,0,1-.2-2.34V13h2.85V32.35h-2.22l-.5-1.8h-.14A4.51,4.51,0,0,1,98.48,32.6Zm.76-2.37a3.05,3.05,0,0,0,2.56-1,5.44,5.44,0,0,0,.82-3.29v-.41a6.29,6.29,0,0,0-.82-3.7,3,3,0,0,0-2.58-1.1A2.6,2.6,0,0,0,96.91,22a6.43,6.43,0,0,0-.81,3.56A6.32,6.32,0,0,0,96.88,29a2.62,2.62,0,0,0,2.36,1.21Z"/><path id="Tracé_871" data-name="Tracé 871" class="cls-1" d="M109.25,14.94a1.65,1.65,0,0,1,.41-1.2,1.62,1.62,0,0,1,1.2-.43,1.59,1.59,0,0,1,1.17.43,1.65,1.65,0,0,1,.41,1.2,1.46,1.46,0,0,1-1.58,1.61,1.61,1.61,0,0,1-1.2-.43A1.59,1.59,0,0,1,109.25,14.94Zm3,17.41h-2.85V18.59h2.85Z"/><path id="Tracé_872" data-name="Tracé 872" class="cls-1" d="M128.21,25.44a7.68,7.68,0,0,1-1.69,5.27,6,6,0,0,1-4.68,1.89,6.32,6.32,0,0,1-3.32-.87,5.84,5.84,0,0,1-2.22-2.5,8.8,8.8,0,0,1-.77-3.78,7.61,7.61,0,0,1,1.67-5.23,6,6,0,0,1,4.71-1.88,5.85,5.85,0,0,1,4.6,1.92A7.57,7.57,0,0,1,128.21,25.44Zm-9.75,0q0,4.77,3.43,4.77t3.39-4.77q0-4.71-3.42-4.71a2.88,2.88,0,0,0-2.6,1.22,6.35,6.35,0,0,0-.8,3.49Z"/><path id="Tracé_873" data-name="Tracé 873" class="cls-1" d="M134.32,32.35h-2.84V13h2.84Z"/><path id="Tracé_874" data-name="Tracé 874" class="cls-1" d="M150.27,25.44a7.68,7.68,0,0,1-1.69,5.27,6,6,0,0,1-4.68,1.89,6.32,6.32,0,0,1-3.32-.87,5.75,5.75,0,0,1-2.21-2.5,8.66,8.66,0,0,1-.78-3.78,7.61,7.61,0,0,1,1.67-5.23A6,6,0,0,1,144,18.34a5.85,5.85,0,0,1,4.6,1.92A7.57,7.57,0,0,1,150.27,25.44Zm-9.75,0q0,4.77,3.43,4.77t3.39-4.77q0-4.71-3.42-4.71a2.88,2.88,0,0,0-2.6,1.22A6.35,6.35,0,0,0,140.52,25.44Z"/><path id="Tracé_875" data-name="Tracé 875" class="cls-1" d="M164.84,18.59v1.6l-2.28.44a4.24,4.24,0,0,1,.52,1.07,4.35,4.35,0,0,1,.2,1.34,4.16,4.16,0,0,1-1.43,3.35,5.87,5.87,0,0,1-3.93,1.22,6.41,6.41,0,0,1-1.16-.1,1.65,1.65,0,0,0-.92,1.37.76.76,0,0,0,.43.71,3.69,3.69,0,0,0,1.58.23h2.34a5.11,5.11,0,0,1,3.36,1,3.46,3.46,0,0,1,1.15,2.8,4.09,4.09,0,0,1-1.88,3.61,9.61,9.61,0,0,1-5.42,1.27,7.36,7.36,0,0,1-4.18-1,3.26,3.26,0,0,1-1.44-2.84,3.07,3.07,0,0,1,.78-2.13,4.07,4.07,0,0,1,2.19-1.2,2.21,2.21,0,0,1-.94-.8,2.11,2.11,0,0,1,.06-2.47A4.89,4.89,0,0,1,155.12,27a3.76,3.76,0,0,1-1.68-1.5,4.44,4.44,0,0,1-.65-2.43,4.41,4.41,0,0,1,1.37-3.48,5.73,5.73,0,0,1,3.92-1.23,9.39,9.39,0,0,1,1.19.08c.32,0,.63.1.94.17Zm-10.52,15.9a1.63,1.63,0,0,0,.83,1.45,4.4,4.4,0,0,0,2.33.51,6.82,6.82,0,0,0,3.47-.68A2,2,0,0,0,162.08,34a1.35,1.35,0,0,0-.62-1.27,5,5,0,0,0-2.32-.38H157a3,3,0,0,0-2,.59,2,2,0,0,0-.72,1.6ZM155.55,23a2.81,2.81,0,0,0,.64,2,2.39,2.39,0,0,0,1.86.7c1.65,0,2.47-.9,2.47-2.71a3.13,3.13,0,0,0-.61-2.07,2.28,2.28,0,0,0-1.86-.73,2.35,2.35,0,0,0-1.87.72,3.06,3.06,0,0,0-.63,2.1Z"/><path id="Tracé_876" data-name="Tracé 876" class="cls-1" d="M176.32,28.43a3.63,3.63,0,0,1-1.43,3.09,6.71,6.71,0,0,1-4.09,1.08,9.37,9.37,0,0,1-4.3-.84V29.24a10.39,10.39,0,0,0,4.4,1.12c1.75,0,2.63-.54,2.63-1.63a1.29,1.29,0,0,0-.29-.87,3.36,3.36,0,0,0-1-.72,16.23,16.23,0,0,0-1.85-.85,8.55,8.55,0,0,1-3.13-1.84,3.48,3.48,0,0,1-.82-2.39,3.16,3.16,0,0,1,1.39-2.74,6.41,6.41,0,0,1,3.77-1,10.47,10.47,0,0,1,4.47,1l-.92,2.21a9.83,9.83,0,0,0-3.65-.92q-2.25,0-2.25,1.32a1.33,1.33,0,0,0,.59,1.1,12.57,12.57,0,0,0,2.56,1.23,11.57,11.57,0,0,1,2.41,1.21A3.54,3.54,0,0,1,176,26.73,3.69,3.69,0,0,1,176.32,28.43Z"/></g><g id="Groupe_583" data-name="Groupe 583"><g id="Groupe_582" data-name="Groupe 582"><path id="Tracé_877" data-name="Tracé 877" class="cls-1" d="M178.88,15.5a2.4,2.4,0,0,1,.34-1.25,2.51,2.51,0,0,1,3.44-.93,2.52,2.52,0,1,1-3.44,3.45,2.57,2.57,0,0,1-.34-1.27Zm.41,0a2.1,2.1,0,0,0,2.09,2.11,2.16,2.16,0,0,0,1.08-.29,2.11,2.11,0,0,0-2.11-3.65,2,2,0,0,0-.77.77A2.09,2.09,0,0,0,179.29,15.5Zm3.13-.6a.77.77,0,0,1-.51.78L182.7,17H182l-.65-1.16h-.3V17h-.63V14h.87a1.36,1.36,0,0,1,.86.23.84.84,0,0,1,.27.68Zm-1.37.47h.23a.58.58,0,0,0,.38-.12.47.47,0,0,0,.13-.34.41.41,0,0,0-.13-.33.58.58,0,0,0-.38-.1h-.23Z"/></g></g></g></g></svg>