<svg xmlns="http://www.w3.org/2000/svg" width="15.243" height="12.38" viewBox="0 0 15.243 12.38">
  <path id="twitter" d="M13.676,51.167c.01.135.01.271.01.406A8.828,8.828,0,0,1,4.8,60.462,8.828,8.828,0,0,1,0,59.06a6.464,6.464,0,0,0,.754.039,6.257,6.257,0,0,0,3.879-1.335A3.13,3.13,0,0,1,1.712,55.6a3.941,3.941,0,0,0,.59.048,3.3,3.3,0,0,0,.822-.106A3.125,3.125,0,0,1,.619,52.473v-.039a3.146,3.146,0,0,0,1.412.4,3.129,3.129,0,0,1-.967-4.178,8.88,8.88,0,0,0,6.442,3.269,3.527,3.527,0,0,1-.077-.716,3.127,3.127,0,0,1,5.407-2.138,6.151,6.151,0,0,0,1.983-.754,3.116,3.116,0,0,1-1.373,1.722,6.263,6.263,0,0,0,1.8-.484A6.716,6.716,0,0,1,13.676,51.167Z" transform="translate(0 -48.082)" fill="#fff"/>
</svg>
