<svg id="Calque_1" data-name="Calque 1" xmlns="http://www.w3.org/2000/svg" viewBox="0 0 232.44 56.69"><defs><style>.cls-1{fill:#08244d;}</style></defs><g id="Groupe_499" data-name="Groupe 499"><g id="Groupe_499-2" data-name="Groupe 499-2"><path id="Tracé_597" data-name="Tracé 597" class="cls-1" d="M24.59,6.48V51.26a4.48,4.48,0,0,0,4.48-4.48V2h0A4.48,4.48,0,0,0,24.59,6.48Z"/><path id="Tracé_598" data-name="Tracé 598" class="cls-1" d="M2.22,28.87h8.93V24.39H6.69A4.48,4.48,0,0,0,2.22,28.87Z"/><path id="Tracé_599" data-name="Tracé 599" class="cls-1" d="M42.51,24.39v4.48H47a4.48,4.48,0,0,0,4.48-4.48Z"/><path id="Tracé_600" data-name="Tracé 600" class="cls-1" d="M15.63,15.49V28.86h4.48V11A4.47,4.47,0,0,0,15.63,15.49Z"/><path id="Tracé_601" data-name="Tracé 601" class="cls-1" d="M33.55,42.29h0A4.49,4.49,0,0,0,38,37.81V24.4H33.55Z"/></g><g id="Groupe_500" data-name="Groupe 500"><path id="Tracé_602" data-name="Tracé 602" class="cls-1" d="M75.24,6.38a6,6,0,0,0-4.95,2.3A10,10,0,0,0,68.49,15q0,4.22,1.74,6.39a6,6,0,0,0,5,2.17A13.38,13.38,0,0,0,78,23.28c.89-.2,1.81-.45,2.77-.75v3.22a16.4,16.4,0,0,1-6,1q-4.92,0-7.54-3.05c-1.75-2-2.63-4.95-2.63-8.75a14.37,14.37,0,0,1,1.28-6.26,9.27,9.27,0,0,1,3.69-4.12,10.93,10.93,0,0,1,5.67-1.43,13.76,13.76,0,0,1,6.33,1.48L80.29,7.76a19.86,19.86,0,0,0-2.39-1A8.55,8.55,0,0,0,75.24,6.38Z"/><path id="Tracé_603" data-name="Tracé 603" class="cls-1" d="M95.77,26.46,95.06,24h-.13a6.82,6.82,0,0,1-2.46,2.16,7.52,7.52,0,0,1-3.18.58A4.84,4.84,0,0,1,84,22.45a4.5,4.5,0,0,1,0-1A4.61,4.61,0,0,1,86,17.43a10.94,10.94,0,0,1,5.91-1.49l2.92-.1v-.92A3.58,3.58,0,0,0,94,12.43a3.06,3.06,0,0,0-2.35-.83,7.77,7.77,0,0,0-2.49.4,17.51,17.51,0,0,0-2.3.92l-1.16-2.64a12.55,12.55,0,0,1,3-1.12,12.94,12.94,0,0,1,3.09-.38,7.15,7.15,0,0,1,4.87,1.44,5.72,5.72,0,0,1,1.64,4.54v11.7ZM90.42,24a4.43,4.43,0,0,0,3.15-1.12,4.15,4.15,0,0,0,1.18-3.15V18.16l-2.17.1a7.28,7.28,0,0,0-3.69.87,2.68,2.68,0,0,0-1.16,2.38,2.37,2.37,0,0,0,.68,1.8,2.86,2.86,0,0,0,2,.64Z"/><path id="Tracé_604" data-name="Tracé 604" class="cls-1" d="M111.93,8.77a8.28,8.28,0,0,1,1.79.16l-.35,3.44a6.59,6.59,0,0,0-1.59-.19,4.53,4.53,0,0,0-3.49,1.44A5.3,5.3,0,0,0,107,17.38v9.08h-3.59V9.09h2.81l.47,3.06h.19A6.85,6.85,0,0,1,109,9.68,5.14,5.14,0,0,1,111.93,8.77Z"/><path id="Tracé_605" data-name="Tracé 605" class="cls-1" d="M122.55,26.77a5.82,5.82,0,0,1-4.93-2.35,13.2,13.2,0,0,1,0-13.27,5.88,5.88,0,0,1,5-2.38,5.78,5.78,0,0,1,5.07,2.53h.18a24.3,24.3,0,0,1-.26-3V2h3.61V26.46h-2.81l-.63-2.28h-.17A5.7,5.7,0,0,1,122.55,26.77Zm1-3a3.86,3.86,0,0,0,3.22-1.28,6.86,6.86,0,0,0,1-4.16v-.51c0-2.19-.35-3.75-1-4.67a3.8,3.8,0,0,0-3.25-1.38,3.27,3.27,0,0,0-2.92,1.58,8.3,8.3,0,0,0-1,4.5,8,8,0,0,0,1,4.4,3.31,3.31,0,0,0,3,1.52Z"/><path id="Tracé_606" data-name="Tracé 606" class="cls-1" d="M136.15,4.48A2.07,2.07,0,0,1,136.67,3a2,2,0,0,1,1.51-.54,2,2,0,0,1,1.47.54,2,2,0,0,1,.53,1.52A2,2,0,0,1,139.65,6a2.33,2.33,0,0,1-3,0A2,2,0,0,1,136.15,4.48Zm3.8,22h-3.59V9.09H140Z"/><path id="Tracé_607" data-name="Tracé 607" class="cls-1" d="M160.08,17.74A9.66,9.66,0,0,1,158,24.39,7.51,7.51,0,0,1,152,26.77a7.92,7.92,0,0,1-4.19-1.1,7.19,7.19,0,0,1-2.8-3.15,11.06,11.06,0,0,1-1-4.78,9.51,9.51,0,0,1,2.11-6.6,7.55,7.55,0,0,1,5.94-2.37,7.36,7.36,0,0,1,5.81,2.43A9.47,9.47,0,0,1,160.08,17.74Zm-12.3,0q0,6,4.33,6t4.28-6q0-6-4.32-5.95a3.62,3.62,0,0,0-3.27,1.54,7.9,7.9,0,0,0-1,4.41Z"/><path id="Tracé_608" data-name="Tracé 608" class="cls-1" d="M167.8,26.46h-3.59V2h3.59Z"/><path id="Tracé_609" data-name="Tracé 609" class="cls-1" d="M187.94,17.74a9.66,9.66,0,0,1-2.12,6.65,7.51,7.51,0,0,1-5.92,2.38,7.92,7.92,0,0,1-4.19-1.1,7.13,7.13,0,0,1-2.8-3.15,11.07,11.07,0,0,1-1-4.78,9.61,9.61,0,0,1,2.11-6.6,7.56,7.56,0,0,1,6-2.37,7.37,7.37,0,0,1,5.81,2.43A9.51,9.51,0,0,1,187.94,17.74Zm-12.3,0q0,6,4.32,6t4.28-6q0-6-4.31-5.95a3.63,3.63,0,0,0-3.28,1.54,8,8,0,0,0-1,4.41Z"/><path id="Tracé_610" data-name="Tracé 610" class="cls-1" d="M206.34,9.09v2l-2.89.55a5,5,0,0,1,.66,1.35,5.79,5.79,0,0,1,.26,1.7,5.29,5.29,0,0,1-1.8,4.23,7.42,7.42,0,0,1-5,1.54,8,8,0,0,1-1.47-.13A2.08,2.08,0,0,0,195,22.08a1,1,0,0,0,.54.9,4.56,4.56,0,0,0,2,.3h3a6.41,6.41,0,0,1,4.25,1.23A4.34,4.34,0,0,1,206.16,28a5.15,5.15,0,0,1-2.37,4.55q-2.37,1.6-6.84,1.6a9.28,9.28,0,0,1-5.28-1.25,4.1,4.1,0,0,1-1.82-3.58,3.89,3.89,0,0,1,1-2.7,5.24,5.24,0,0,1,2.76-1.51,2.74,2.74,0,0,1-1.19-1,2.56,2.56,0,0,1-.46-1.47,2.61,2.61,0,0,1,.53-1.65,6.16,6.16,0,0,1,1.59-1.33,4.77,4.77,0,0,1-2.13-1.89,5.73,5.73,0,0,1-.82-3.07,5.58,5.58,0,0,1,1.74-4.39,7.17,7.17,0,0,1,4.94-1.55,10.94,10.94,0,0,1,1.51.1,7.88,7.88,0,0,1,1.18.21ZM193.06,29.16a2,2,0,0,0,1,1.84,5.59,5.59,0,0,0,3,.64,8.7,8.7,0,0,0,4.37-.86,2.61,2.61,0,0,0,1.44-2.29,1.75,1.75,0,0,0-.79-1.61,6.13,6.13,0,0,0-2.93-.48h-2.72a3.77,3.77,0,0,0-2.45.74A2.47,2.47,0,0,0,193.06,29.16Zm1.54-14.45a3.53,3.53,0,0,0,.82,2.51,3,3,0,0,0,2.34.88q3.12,0,3.12-3.42a4,4,0,0,0-.77-2.62,2.92,2.92,0,0,0-2.35-.91,3,3,0,0,0-2.36.91,3.88,3.88,0,0,0-.8,2.65Z"/><path id="Tracé_611" data-name="Tracé 611" class="cls-1" d="M220.83,21.51a4.59,4.59,0,0,1-1.8,3.9,8.42,8.42,0,0,1-5.16,1.36,11.92,11.92,0,0,1-5.43-1.05V22.53A12.93,12.93,0,0,0,214,23.94c2.21,0,3.31-.68,3.31-2.06a1.66,1.66,0,0,0-.36-1.1,4.47,4.47,0,0,0-1.21-.91,20.46,20.46,0,0,0-2.34-1.06,10.82,10.82,0,0,1-3.95-2.33,4.38,4.38,0,0,1-1-3A4,4,0,0,1,210.16,10a8.14,8.14,0,0,1,4.76-1.23A13.1,13.1,0,0,1,220.56,10l-1.16,2.78a12.25,12.25,0,0,0-4.6-1.16c-1.9,0-2.84.55-2.84,1.66a1.66,1.66,0,0,0,.74,1.38,16,16,0,0,0,3.23,1.56,14.89,14.89,0,0,1,3,1.52,4.53,4.53,0,0,1,1.41,1.6A4.71,4.71,0,0,1,220.83,21.51Z"/></g><g id="Groupe_501" data-name="Groupe 501"><path id="Tracé_612" data-name="Tracé 612" class="cls-1" d="M72.87,51l-1.39-3.67H67L65.61,51H64.29l4.43-11.56h1.1L74.23,51Zm-1.8-4.87-1.3-3.57c-.17-.45-.34-1-.52-1.66a15.76,15.76,0,0,1-.48,1.66l-1.32,3.57Z"/><path id="Tracé_613" data-name="Tracé 613" class="cls-1" d="M75.87,51V39.46h1.3V51Z"/><path id="Tracé_614" data-name="Tracé 614" class="cls-1" d="M90.86,47.91a2.82,2.82,0,0,1-1.07,2.37,4.51,4.51,0,0,1-2.91.85,7,7,0,0,1-3.07-.52v-1.3a8.18,8.18,0,0,0,1.5.48,7.93,7.93,0,0,0,1.61.17,3.16,3.16,0,0,0,2-.51A1.65,1.65,0,0,0,89.54,48a1.78,1.78,0,0,0-.23-1,2.28,2.28,0,0,0-.78-.7,10.31,10.31,0,0,0-1.67-.73,5.36,5.36,0,0,1-2.23-1.36A3,3,0,0,1,84,42.21a2.59,2.59,0,0,1,1-2.12,4,4,0,0,1,2.58-.78,7.25,7.25,0,0,1,3.07.63l-.41,1.16a6.81,6.81,0,0,0-2.7-.6,2.57,2.57,0,0,0-1.61.46,1.52,1.52,0,0,0-.59,1.27,2,2,0,0,0,.22,1,2.1,2.1,0,0,0,.72.7,9.91,9.91,0,0,0,1.56.7A6.13,6.13,0,0,1,90.2,46,2.79,2.79,0,0,1,90.86,47.91Z"/><path id="Tracé_615" data-name="Tracé 615" class="cls-1" d="M96.62,51.13A3.82,3.82,0,0,1,93.68,50a4.59,4.59,0,0,1-1.07-3.24,5,5,0,0,1,1-3.31,3.27,3.27,0,0,1,2.68-1.23,3.14,3.14,0,0,1,2.5,1.06,4.19,4.19,0,0,1,.92,2.82v.83H93.93a3.42,3.42,0,0,0,.74,2.3,2.52,2.52,0,0,0,2,.79,6.49,6.49,0,0,0,2.68-.58v1.16a6.33,6.33,0,0,1-1.27.43A6.5,6.5,0,0,1,96.62,51.13Zm-.34-7.85a2.06,2.06,0,0,0-1.62.68A3.2,3.2,0,0,0,94,45.83h4.39a2.9,2.9,0,0,0-.53-1.89,1.88,1.88,0,0,0-1.53-.66Z"/><path id="Tracé_616" data-name="Tracé 616" class="cls-1" d="M105.82,42.19a5.63,5.63,0,0,1,1,.09l-.18,1.21a4.06,4.06,0,0,0-.92-.11,2.2,2.2,0,0,0-1.74.85,3.11,3.11,0,0,0-.72,2.11V51H102V42.34h1l.15,1.6h.06a3.91,3.91,0,0,1,1.13-1.3A2.56,2.56,0,0,1,105.82,42.19Z"/><path id="Tracé_617" data-name="Tracé 617" class="cls-1" d="M110.34,51l-3.19-8.63h1.37l1.81,5.11c.4,1.2.64,2,.72,2.33h.06a14.85,14.85,0,0,1,.53-1.72c.3-.88,1-2.78,2-5.72H115L111.83,51Z"/><path id="Tracé_618" data-name="Tracé 618" class="cls-1" d="M116.37,40a.84.84,0,0,1,.21-.66.79.79,0,0,1,1.07,0,.86.86,0,0,1,.22.65.89.89,0,0,1-.22.66.76.76,0,0,1-1.07,0A.87.87,0,0,1,116.37,40Zm1.37,11h-1.27V42.34h1.27Z"/><path id="Tracé_619" data-name="Tracé 619" class="cls-1" d="M126.3,51V45.39a2.29,2.29,0,0,0-.47-1.57,1.84,1.84,0,0,0-1.46-.52,2.39,2.39,0,0,0-1.93.73,3.77,3.77,0,0,0-.62,2.42V51h-1.27V42.34h1l.21,1.19h.06a2.57,2.57,0,0,1,1.1-1,3.43,3.43,0,0,1,1.57-.35,3.15,3.15,0,0,1,2.28.75,3.25,3.25,0,0,1,.77,2.41V51Z"/><path id="Tracé_620" data-name="Tracé 620" class="cls-1" d="M137.17,42.35v.82l-1.56.19a2.76,2.76,0,0,1,.38.72,2.63,2.63,0,0,1,.17,1,2.56,2.56,0,0,1-.84,2,3.35,3.35,0,0,1-2.31.75,4,4,0,0,1-.7-.06,1.28,1.28,0,0,0-.82,1.11.56.56,0,0,0,.29.52,1.91,1.91,0,0,0,1,.17h1.49a3.3,3.3,0,0,1,2.1.59,2.09,2.09,0,0,1,.73,1.72A2.48,2.48,0,0,1,136,54.09a5.74,5.74,0,0,1-3.26.75,4.27,4.27,0,0,1-2.54-.63,2,2,0,0,1-.9-1.77,2.08,2.08,0,0,1,.49-1.37,2.56,2.56,0,0,1,1.38-.78,1.33,1.33,0,0,1-.54-.46,1.28,1.28,0,0,1-.22-.73,1.42,1.42,0,0,1,.25-.83,2.5,2.5,0,0,1,.77-.68,2.36,2.36,0,0,1-1.06-.94,3.16,3.16,0,0,1,.42-3.7,3.32,3.32,0,0,1,2.34-.77,4.38,4.38,0,0,1,1.19.16Zm-6.7,10.07a1.19,1.19,0,0,0,.58,1.07,3.12,3.12,0,0,0,1.65.36,4.43,4.43,0,0,0,2.37-.49,1.53,1.53,0,0,0,.77-1.34,1.08,1.08,0,0,0-.42-1,3.23,3.23,0,0,0-1.59-.27H132.3a2,2,0,0,0-1.34.42A1.54,1.54,0,0,0,130.47,52.42Zm.69-7.31a1.81,1.81,0,0,0,.5,1.37,2,2,0,0,0,1.39.46,1.64,1.64,0,0,0,1.86-1.39,1.77,1.77,0,0,0,0-.46,1.68,1.68,0,0,0-1.41-1.94,1.48,1.48,0,0,0-.47,0,1.85,1.85,0,0,0-1.38.5,2,2,0,0,0-.49,1.46Z"/><path id="Tracé_621" data-name="Tracé 621" class="cls-1" d="M148.17,40.5a3.57,3.57,0,0,0-2.91,1.26,5.21,5.21,0,0,0-1.07,3.46,5.25,5.25,0,0,0,1,3.49,3.59,3.59,0,0,0,2.94,1.23,9.37,9.37,0,0,0,2.67-.43v1.17a7.78,7.78,0,0,1-2.87.45,4.8,4.8,0,0,1-3.82-1.54,6.49,6.49,0,0,1-1.35-4.39,7.09,7.09,0,0,1,.65-3.11A4.66,4.66,0,0,1,145.31,40a5.59,5.59,0,0,1,2.88-.73,6.85,6.85,0,0,1,3.08.67l-.55,1.14A5.91,5.91,0,0,0,148.17,40.5Z"/><path id="Tracé_622" data-name="Tracé 622" class="cls-1" d="M158.36,51l-.25-1.23H158a3.49,3.49,0,0,1-1.25,1.1,3.76,3.76,0,0,1-1.56.28,2.68,2.68,0,0,1-1.95-.66,2.4,2.4,0,0,1-.71-1.88c0-1.74,1.35-2.65,4.07-2.74l1.42-.05v-.53a2.29,2.29,0,0,0-.42-1.5,1.73,1.73,0,0,0-1.36-.48,5.34,5.34,0,0,0-2.38.66l-.39-1a6,6,0,0,1,1.36-.55,6.14,6.14,0,0,1,1.48-.2,3.17,3.17,0,0,1,2.23.69,2.9,2.9,0,0,1,.72,2.2V51Zm-2.87-.93A2.34,2.34,0,0,0,158,47.51v-.78l-1.27.06a4.5,4.5,0,0,0-2.19.48,1.48,1.48,0,0,0-.67,1.33,1.36,1.36,0,0,0,.42,1.08,1.65,1.65,0,0,0,1.17.37Z"/><path id="Tracé_623" data-name="Tracé 623" class="cls-1" d="M165.86,42.19a5.55,5.55,0,0,1,1,.09l-.17,1.21a4.13,4.13,0,0,0-.92-.11,2.22,2.22,0,0,0-1.75.85,3.11,3.11,0,0,0-.72,2.11V51H162V42.34h1.05l.14,1.6h.06a3.91,3.91,0,0,1,1.13-1.3A2.49,2.49,0,0,1,165.86,42.19Z"/><path id="Tracé_624" data-name="Tracé 624" class="cls-1" d="M174.26,49.82h-.07a3,3,0,0,1-2.63,1.31A3.09,3.09,0,0,1,169,50a5.19,5.19,0,0,1-.91-3.29,5.28,5.28,0,0,1,.92-3.31,3.35,3.35,0,0,1,5.18.09h.1l-.06-.62,0-.61V38.72h1.27V51h-1Zm-2.54.22a2.32,2.32,0,0,0,1.89-.73,3.74,3.74,0,0,0,.58-2.35v-.27a4.43,4.43,0,0,0-.59-2.62,2.2,2.2,0,0,0-1.9-.78,1.93,1.93,0,0,0-1.71.89,4.53,4.53,0,0,0-.6,2.52,4.36,4.36,0,0,0,.59,2.5,2,2,0,0,0,1.74.84Z"/><path id="Tracé_625" data-name="Tracé 625" class="cls-1" d="M178.16,40a.89.89,0,0,1,.22-.66.77.77,0,0,1,1.06,0,.83.83,0,0,1,.23.65.85.85,0,0,1-.23.66.74.74,0,0,1-.52.22.76.76,0,0,1-.54-.22A.92.92,0,0,1,178.16,40Zm1.38,11h-1.27V42.34h1.27Z"/><path id="Tracé_626" data-name="Tracé 626" class="cls-1" d="M189.6,46.65a4.91,4.91,0,0,1-1,3.3,4,4,0,0,1-4.86.64A3.52,3.52,0,0,1,182.36,49a5.73,5.73,0,0,1-.48-2.38,4.86,4.86,0,0,1,1-3.28,3.56,3.56,0,0,1,2.85-1.18,3.48,3.48,0,0,1,2.8,1.2A4.85,4.85,0,0,1,189.6,46.65Zm-6.4,0a4.21,4.21,0,0,0,.64,2.52,2.5,2.5,0,0,0,3.54.25,2,2,0,0,0,.25-.25,4.15,4.15,0,0,0,.65-2.52,4.09,4.09,0,0,0-.65-2.5,2.28,2.28,0,0,0-1.91-.86,2.24,2.24,0,0,0-1.89.85,4.19,4.19,0,0,0-.63,2.51Z"/><path id="Tracé_627" data-name="Tracé 627" class="cls-1" d="M193.21,51h-1.27V38.72h1.27Z"/><path id="Tracé_628" data-name="Tracé 628" class="cls-1" d="M203.27,46.65a4.87,4.87,0,0,1-1,3.3,4,4,0,0,1-4.86.64A3.65,3.65,0,0,1,196,49a5.56,5.56,0,0,1-.47-2.38,4.81,4.81,0,0,1,1-3.28,3.55,3.55,0,0,1,2.85-1.18,3.51,3.51,0,0,1,2.8,1.2A4.85,4.85,0,0,1,203.27,46.65Zm-6.4,0a4.14,4.14,0,0,0,.64,2.52,2.5,2.5,0,0,0,3.54.25,2,2,0,0,0,.25-.25,4.15,4.15,0,0,0,.65-2.52,4.16,4.16,0,0,0-.65-2.5,2.28,2.28,0,0,0-1.91-.86,2.23,2.23,0,0,0-1.89.85,4.12,4.12,0,0,0-.63,2.51Z"/><path id="Tracé_629" data-name="Tracé 629" class="cls-1" d="M212.48,42.35v.82l-1.56.19a2.76,2.76,0,0,1,.38.72,2.63,2.63,0,0,1,.17,1,2.56,2.56,0,0,1-.84,2,3.34,3.34,0,0,1-2.31.75,4,4,0,0,1-.7-.06,1.28,1.28,0,0,0-.82,1.11.56.56,0,0,0,.29.52,1.91,1.91,0,0,0,1,.17h1.48a3.27,3.27,0,0,1,2.1.59,2.1,2.1,0,0,1,.74,1.72,2.48,2.48,0,0,1-1.12,2.18,5.77,5.77,0,0,1-3.27.75,4.29,4.29,0,0,1-2.54-.63,2.19,2.19,0,0,1-.4-3.14,2.56,2.56,0,0,1,1.38-.78,1.3,1.3,0,0,1-.76-1.19,1.42,1.42,0,0,1,.25-.83,2.5,2.5,0,0,1,.77-.68,2.31,2.31,0,0,1-1.06-.94,3.16,3.16,0,0,1,.42-3.7,3.32,3.32,0,0,1,2.34-.77,4.38,4.38,0,0,1,1.19.16Zm-6.7,10.07a1.18,1.18,0,0,0,.57,1.07,3.17,3.17,0,0,0,1.65.36,4.63,4.63,0,0,0,2.37-.49,1.52,1.52,0,0,0,.77-1.34,1.08,1.08,0,0,0-.42-1,3.1,3.1,0,0,0-1.59-.27h-1.52a2,2,0,0,0-1.35.42,1.54,1.54,0,0,0-.48,1.22Zm.69-7.31a1.75,1.75,0,0,0,.5,1.37,1.93,1.93,0,0,0,1.38.46,1.65,1.65,0,0,0,1.87-1.39,1.85,1.85,0,0,0,0-.47,1.69,1.69,0,0,0-1.41-1.93,1.55,1.55,0,0,0-.48,0,1.85,1.85,0,0,0-1.38.5,2.05,2.05,0,0,0-.48,1.46Z"/><path id="Tracé_630" data-name="Tracé 630" class="cls-1" d="M213,42.35h1.36l1.84,4.92a18.46,18.46,0,0,1,.75,2.43H217c.07-.27.21-.72.42-1.37s.91-2.65,2.08-6h1.37l-3.61,9.82A4.93,4.93,0,0,1,216,54.24a2.6,2.6,0,0,1-1.75.61,4.89,4.89,0,0,1-1.15-.14v-1a4.16,4.16,0,0,0,.94.09,2,2,0,0,0,1.87-1.51l.46-1.23Z"/></g><g id="Groupe_502" data-name="Groupe 502"><path id="Tracé_631" data-name="Tracé 631" class="cls-1" d="M223.85,5a3.14,3.14,0,0,1,.42-1.58,3.06,3.06,0,0,1,1.17-1.17,3.19,3.19,0,1,1-1.16,4.36A3.23,3.23,0,0,1,223.85,5Zm.52,0a2.65,2.65,0,1,0,.36-1.34A2.64,2.64,0,0,0,224.37,5Zm3.95-.75a1,1,0,0,1-.64,1l1,1.68h-.9L227,5.47h-.38V6.94h-.8V3.11h1.11A1.64,1.64,0,0,1,228,3.4,1.05,1.05,0,0,1,228.32,4.27Zm-1.73.59h.29a.69.69,0,0,0,.48-.15.56.56,0,0,0,.16-.42.52.52,0,0,0-.15-.43.85.85,0,0,0-.49-.12h-.29Z"/></g></g></svg>