<svg xmlns="http://www.w3.org/2000/svg" width="16.651" height="11.708" viewBox="0 0 16.651 11.708">
  <path id="youtube" d="M31.236,65.832a2.092,2.092,0,0,0-1.472-1.482A49.444,49.444,0,0,0,23.258,64a49.444,49.444,0,0,0-6.505.35,2.092,2.092,0,0,0-1.472,1.482,23.557,23.557,0,0,0,0,8.068,2.061,2.061,0,0,0,1.472,1.458,49.444,49.444,0,0,0,6.505.35,49.444,49.444,0,0,0,6.505-.35A2.061,2.061,0,0,0,31.236,73.9a23.557,23.557,0,0,0,0-8.068Zm-9.681,6.51V67.39l4.352,2.476Z" transform="translate(-14.933 -64)" fill="#fff"/>
</svg>
